<svg width="35" height="34" viewBox="0 0 35 34" fill="none" xmlns="http://www.w3.org/2000/svg">
<path d="M34.4502 11.709C34.4971 13.0802 34.5 14.6798 34.5 16.5645V20.0518C34.5 23.3532 34.4987 25.7788 34.248 27.6367C33.9993 29.4801 33.513 30.6896 32.5967 31.6025C31.6801 32.5159 30.4654 33.0011 28.6143 33.249C26.749 33.4989 24.3137 33.5 21 33.5H14C10.6862 33.5 8.25099 33.4989 6.38574 33.249C4.53466 33.0011 3.32 32.5159 2.40332 31.6025C1.48701 30.6896 1.0007 29.4801 0.751953 27.6367C0.501304 25.7788 0.5 23.3532 0.5 20.0518V16.5645L0.503906 14.2471C0.509062 13.3222 0.522458 12.4796 0.548828 11.709C0.636601 11.7853 0.749584 11.833 0.875 11.833H34.125C34.2501 11.833 34.3625 11.785 34.4502 11.709ZM10 25.2822C9.99991 25.9673 9.44203 26.5254 8.75 26.5254C8.05797 26.5254 7.50009 25.9673 7.5 25.2822C7.5 24.5971 8.05791 24.0381 8.75 24.0381C9.44209 24.0381 10 24.5971 10 25.2822ZM18.75 25.2822C18.7499 25.9673 18.1921 26.5254 17.5 26.5254C16.8079 26.5254 16.2501 25.9673 16.25 25.2822C16.25 24.5971 16.8079 24.0381 17.5 24.0381C18.1921 24.0381 18.75 24.5971 18.75 25.2822ZM27.5 25.2822C27.4999 25.9673 26.9421 26.5254 26.25 26.5254C25.5579 26.5254 25.0001 25.9673 25 25.2822C25 24.5971 25.5579 24.0381 26.25 24.0381C26.9421 24.0381 27.5 24.5971 27.5 25.2822ZM10 18.3076C10 18.9927 9.44209 19.5518 8.75 19.5518C8.05791 19.5518 7.5 18.9927 7.5 18.3076C7.50004 17.6225 8.05794 17.0645 8.75 17.0645C9.44206 17.0645 9.99996 17.6225 10 18.3076ZM18.75 18.3076C18.75 18.9927 18.1921 19.5518 17.5 19.5518C16.8079 19.5518 16.25 18.9927 16.25 18.3076C16.25 17.6225 16.8079 17.0645 17.5 17.0645C18.1921 17.0645 18.75 17.6225 18.75 18.3076ZM27.5 18.3076C27.5 18.9927 26.9421 19.5518 26.25 19.5518C25.5579 19.5518 25 18.9927 25 18.3076C25 17.6225 25.5579 17.0645 26.25 17.0645C26.9421 17.0645 27.5 17.6225 27.5 18.3076ZM14 3.11523H21C24.3137 3.11523 26.749 3.11639 28.6143 3.36621C30.4654 3.61417 31.6801 4.0994 32.5967 5.0127C33.513 5.92575 33.9993 7.13517 34.248 8.97852C34.3276 9.56808 34.3798 10.2149 34.417 10.9287C34.3347 10.8692 34.2343 10.833 34.125 10.833H0.875C0.765449 10.833 0.664412 10.869 0.582031 10.9287C0.619251 10.2149 0.672405 9.5681 0.751953 8.97852C1.0007 7.13515 1.48697 5.92575 2.40332 5.0127C3.32 4.09938 4.53466 3.61417 6.38574 3.36621C8.25099 3.11639 10.6862 3.11523 14 3.11523ZM11 25.2822C11 24.0414 9.99089 23.0381 8.75 23.0381C7.50911 23.0381 6.5 24.0414 6.5 25.2822C6.50009 26.523 7.50916 27.5254 8.75 27.5254C9.99084 27.5254 10.9999 26.523 11 25.2822ZM19.75 25.2822C19.75 24.0414 18.7409 23.0381 17.5 23.0381C16.2591 23.0381 15.25 24.0414 15.25 25.2822C15.2501 26.523 16.2591 27.5254 17.5 27.5254C18.7409 27.5254 19.7499 26.523 19.75 25.2822ZM28.5 25.2822C28.5 24.0414 27.4909 23.0381 26.25 23.0381C25.0091 23.0381 24 24.0414 24 25.2822C24.0001 26.523 25.0091 27.5254 26.25 27.5254C27.4909 27.5254 28.4999 26.523 28.5 25.2822ZM11 18.3076C11 17.0668 9.99087 16.0645 8.75 16.0645C7.50913 16.0645 6.50004 17.0668 6.5 18.3076C6.5 19.5485 7.50911 20.5518 8.75 20.5518C9.99089 20.5518 11 19.5485 11 18.3076ZM19.75 18.3076C19.75 17.0668 18.7409 16.0645 17.5 16.0645C16.2591 16.0645 15.25 17.0668 15.25 18.3076C15.25 19.5485 16.2591 20.5518 17.5 20.5518C18.7409 20.5518 19.75 19.5485 19.75 18.3076ZM28.5 18.3076C28.5 17.0668 27.4909 16.0645 26.25 16.0645C25.0091 16.0645 24 17.0668 24 18.3076C24 19.5485 25.0091 20.5518 26.25 20.5518C27.4909 20.5518 28.5 19.5485 28.5 18.3076Z" stroke="white" stroke-linecap="round"/>
</svg>
